<?xml version="1.0" encoding="UTF-8" standalone="no"?>
<!-- Created with Inkscape (http://www.inkscape.org/) -->

<svg
   width="181.33377mm"
   height="156.24023mm"
   viewBox="0 0 181.33377 156.24023"
   version="1.1"
   id="svg1"
   xml:space="preserve"
   sodipodi:docname="DBS_logo.svg"
   inkscape:version="1.4 (86a8ad7, 2024-10-11)"
   xmlns:inkscape="http://www.inkscape.org/namespaces/inkscape"
   xmlns:sodipodi="http://sodipodi.sourceforge.net/DTD/sodipodi-0.dtd"
   xmlns="http://www.w3.org/2000/svg"
   xmlns:svg="http://www.w3.org/2000/svg"><sodipodi:namedview
     id="namedview1"
     pagecolor="#ffffff"
     bordercolor="#000000"
     borderopacity="0.25"
     inkscape:showpageshadow="2"
     inkscape:pageopacity="0.0"
     inkscape:pagecheckerboard="0"
     inkscape:deskcolor="#d1d1d1"
     inkscape:document-units="mm"
     inkscape:zoom="1.3090285"
     inkscape:cx="343.00247"
     inkscape:cy="295.25714"
     inkscape:window-width="1920"
     inkscape:window-height="991"
     inkscape:window-x="-9"
     inkscape:window-y="-9"
     inkscape:window-maximized="1"
     inkscape:current-layer="svg1"><inkscape:page
       x="0"
       y="0"
       width="181.33377"
       height="156.24023"
       id="page2"
       margin="0"
       bleed="0" /></sodipodi:namedview><defs
     id="defs1"><filter
       style="color-interpolation-filters:sRGB"
       inkscape:label="Colorize"
       id="filter54"
       x="-0.0009086489"
       y="-0.00099659334"
       width="1.0018035"
       height="1.0019964"><feComposite
         in2="SourceGraphic"
         operator="arithmetic"
         k1="0.70122"
         k2="0.213415"
         result="composite1"
         id="feComposite53"
         k3="0"
         k4="0" /><feColorMatrix
         in="composite1"
         values="0"
         type="saturate"
         result="colormatrix1"
         id="feColorMatrix53" /><feFlood
         flood-opacity="1"
         flood-color="rgb(208,208,208)"
         result="flood1"
         id="feFlood53" /><feBlend
         in="flood1"
         in2="colormatrix1"
         mode="multiply"
         result="blend1"
         id="feBlend53" /><feBlend
         in2="blend1"
         mode="screen"
         result="blend2"
         id="feBlend54" /><feColorMatrix
         in="blend2"
         values="1"
         type="saturate"
         result="colormatrix2"
         id="feColorMatrix54" /><feComposite
         in="colormatrix2"
         in2="SourceGraphic"
         operator="in"
         result="composite2"
         id="feComposite54" /></filter><filter
       style="color-interpolation-filters:sRGB"
       inkscape:label="Colorize"
       id="filter56"
       x="-0.00072500474"
       y="-0.0021206889"
       width="1.0019778"
       height="1.0030143"><feComposite
         in2="SourceGraphic"
         operator="arithmetic"
         k1="0.70122"
         k2="0.213415"
         result="composite1"
         id="feComposite55"
         k3="0"
         k4="0" /><feColorMatrix
         in="composite1"
         values="0"
         type="saturate"
         result="colormatrix1"
         id="feColorMatrix55" /><feFlood
         flood-opacity="1"
         flood-color="rgb(208,208,208)"
         result="flood1"
         id="feFlood55" /><feBlend
         in="flood1"
         in2="colormatrix1"
         mode="multiply"
         result="blend1"
         id="feBlend55" /><feBlend
         in2="blend1"
         mode="screen"
         result="blend2"
         id="feBlend56" /><feColorMatrix
         in="blend2"
         values="1"
         type="saturate"
         result="colormatrix2"
         id="feColorMatrix56" /><feComposite
         in="colormatrix2"
         in2="SourceGraphic"
         operator="in"
         result="composite2"
         id="feComposite56" /></filter><filter
       style="color-interpolation-filters:sRGB"
       inkscape:label="Colorize"
       id="filter58"
       x="-0.00035972242"
       y="-0.00041401332"
       width="1.0007083"
       height="1.0008369"><feComposite
         in2="SourceGraphic"
         operator="arithmetic"
         k1="0.70122"
         k2="0.213415"
         result="composite1"
         id="feComposite57"
         k3="0"
         k4="0" /><feColorMatrix
         in="composite1"
         values="0"
         type="saturate"
         result="colormatrix1"
         id="feColorMatrix57" /><feFlood
         flood-opacity="1"
         flood-color="rgb(208,208,208)"
         result="flood1"
         id="feFlood57" /><feBlend
         in="flood1"
         in2="colormatrix1"
         mode="multiply"
         result="blend1"
         id="feBlend57" /><feBlend
         in2="blend1"
         mode="screen"
         result="blend2"
         id="feBlend58" /><feColorMatrix
         in="blend2"
         values="1"
         type="saturate"
         result="colormatrix2"
         id="feColorMatrix58" /><feComposite
         in="colormatrix2"
         in2="SourceGraphic"
         operator="in"
         result="composite2"
         id="feComposite58" /></filter><filter
       style="color-interpolation-filters:sRGB"
       inkscape:label="Colorize"
       id="filter60"
       x="-0.0084175892"
       y="-0.014280677"
       width="1.0154065"
       height="1.0289699"><feComposite
         in2="SourceGraphic"
         operator="arithmetic"
         k1="0.70122"
         k2="0.213415"
         result="composite1"
         id="feComposite59"
         k3="0"
         k4="0" /><feColorMatrix
         in="composite1"
         values="0"
         type="saturate"
         result="colormatrix1"
         id="feColorMatrix59" /><feFlood
         flood-opacity="1"
         flood-color="rgb(208,208,208)"
         result="flood1"
         id="feFlood59" /><feBlend
         in="flood1"
         in2="colormatrix1"
         mode="multiply"
         result="blend1"
         id="feBlend59" /><feBlend
         in2="blend1"
         mode="screen"
         result="blend2"
         id="feBlend60" /><feColorMatrix
         in="blend2"
         values="1"
         type="saturate"
         result="colormatrix2"
         id="feColorMatrix60" /><feComposite
         in="colormatrix2"
         in2="SourceGraphic"
         operator="in"
         result="composite2"
         id="feComposite60" /></filter><filter
       style="color-interpolation-filters:sRGB"
       inkscape:label="Colorize"
       id="filter62"
       x="-0.0047348575"
       y="-0.00799217"
       width="1.0082391"
       height="1.0159849"><feComposite
         in2="SourceGraphic"
         operator="arithmetic"
         k1="0.70122"
         k2="0.213415"
         result="composite1"
         id="feComposite61"
         k3="0"
         k4="0" /><feColorMatrix
         in="composite1"
         values="0"
         type="saturate"
         result="colormatrix1"
         id="feColorMatrix61" /><feFlood
         flood-opacity="1"
         flood-color="rgb(208,208,208)"
         result="flood1"
         id="feFlood61" /><feBlend
         in="flood1"
         in2="colormatrix1"
         mode="multiply"
         result="blend1"
         id="feBlend61" /><feBlend
         in2="blend1"
         mode="screen"
         result="blend2"
         id="feBlend62" /><feColorMatrix
         in="blend2"
         values="1"
         type="saturate"
         result="colormatrix2"
         id="feColorMatrix62" /><feComposite
         in="colormatrix2"
         in2="SourceGraphic"
         operator="in"
         result="composite2"
         id="feComposite62" /></filter><filter
       style="color-interpolation-filters:sRGB"
       inkscape:label="Colorize"
       id="filter64"
       x="-0.00062579996"
       y="-0.0050012442"
       width="1.0029436"
       height="1.0099949"><feComposite
         in2="SourceGraphic"
         operator="arithmetic"
         k1="0.70122"
         k2="0.213415"
         result="composite1"
         id="feComposite63"
         k3="0"
         k4="0" /><feColorMatrix
         in="composite1"
         values="0"
         type="saturate"
         result="colormatrix1"
         id="feColorMatrix63" /><feFlood
         flood-opacity="1"
         flood-color="rgb(208,208,208)"
         result="flood1"
         id="feFlood63" /><feBlend
         in="flood1"
         in2="colormatrix1"
         mode="multiply"
         result="blend1"
         id="feBlend63" /><feBlend
         in2="blend1"
         mode="screen"
         result="blend2"
         id="feBlend64" /><feColorMatrix
         in="blend2"
         values="1"
         type="saturate"
         result="colormatrix2"
         id="feColorMatrix64" /><feComposite
         in="colormatrix2"
         in2="SourceGraphic"
         operator="in"
         result="composite2"
         id="feComposite64" /></filter><filter
       style="color-interpolation-filters:sRGB"
       inkscape:label="Colorize"
       id="filter66"
       x="-0.0065195111"
       y="-0.0030121492"
       width="1.0131833"
       height="1.0091681"><feComposite
         in2="SourceGraphic"
         operator="arithmetic"
         k1="0.70122"
         k2="0.213415"
         result="composite1"
         id="feComposite65"
         k3="0"
         k4="0" /><feColorMatrix
         in="composite1"
         values="0"
         type="saturate"
         result="colormatrix1"
         id="feColorMatrix65" /><feFlood
         flood-opacity="1"
         flood-color="rgb(208,208,208)"
         result="flood1"
         id="feFlood65" /><feBlend
         in="flood1"
         in2="colormatrix1"
         mode="multiply"
         result="blend1"
         id="feBlend65" /><feBlend
         in2="blend1"
         mode="screen"
         result="blend2"
         id="feBlend66" /><feColorMatrix
         in="blend2"
         values="1"
         type="saturate"
         result="colormatrix2"
         id="feColorMatrix66" /><feComposite
         in="colormatrix2"
         in2="SourceGraphic"
         operator="in"
         result="composite2"
         id="feComposite66" /></filter></defs><g
     id="layer3"
     style="display:inline"
     transform="translate(-9.3761126,-17.49165)"><path
       style="display:inline;fill:#45841a;fill-opacity:1;stroke:#45841a;stroke-width:0.358023;stroke-dasharray:none;stroke-opacity:1;filter:url(#filter66)"
       d="m 119.63828,77.105108 c 0,0 -16.92639,-23.065973 11.86201,-51.249585 7.1971,-7.045901 10.39389,-8.653098 10.62473,-8.077574 -0.30374,2.79934 0.0404,10.625326 -1.11965,16.33029 -2.29431,11.283367 -5.95135,19.125564 -8.76528,23.182748 -1.62696,2.345774 -11.1503,16.185327 -12.60181,19.814121 z"
       id="path38" /><path
       style="display:inline;fill:#45841a;fill-opacity:1;stroke:#45841a;stroke-width:0.358023;stroke-dasharray:none;stroke-opacity:1;filter:url(#filter64)"
       d="m 117.94483,81.70157 c 0,0 -26.80916,-30.252347 -56.851044,-27.699766 C 35.165422,56.20487 28.918516,66.581614 9.4440129,74.564953 32.305389,72.14576 36.314878,81.320566 62.908179,86.90284 c 13.562434,2.846929 42.335891,6.289897 55.036651,-5.20127 z"
       id="path39" /><path
       id="path39-5"
       style="display:inline;fill:#a1c63f;fill-opacity:1;stroke:#a1c63f;stroke-width:0.358023;stroke-dasharray:none;stroke-opacity:1;filter:url(#filter62)"
       d="M 76.857547,67.300834 A 66.354736,66.354736 0 0 0 38.944099,79.36418 c 6.127224,2.435393 13.160451,5.270774 23.963912,7.538558 13.555495,2.845473 42.306109,6.285837 55.016799,-5.184179 A 66.354736,66.354736 0 0 0 76.857547,67.300834 Z" /><path
       id="path39-5-0"
       style="display:inline;fill:#d2ba61;fill-opacity:1;stroke:#d2ba61;stroke-width:0.358023;stroke-dasharray:none;stroke-opacity:1;filter:url(#filter60)"
       d="M 100.53879,77.158114 A 35.947781,35.947781 0 0 0 74.19001,88.749137 c 14.552936,1.784178 33.89531,1.825912 43.7162,-7.015075 a 35.947781,35.947781 0 0 0 -17.36742,-4.575948 z" /><path
       style="display:inline;fill:#2a9ab2;fill-opacity:1;stroke:#2a9ab2;stroke-width:0.1;stroke-dasharray:none;stroke-opacity:1;filter:url(#filter58)"
       d="m 79.22755,95.718174 c 0,0 -16.245173,6.880306 -21.023165,20.640926 -4.777994,13.76062 1.146718,22.36101 1.146718,22.36101 0,0 4.395753,9.7471 16.054054,12.99613 11.6583,3.24904 23.88996,-2.86679 31.152513,-11.6583 7.26255,-8.7915 13.5695,-29.05019 13.95173,-30.77027 0.38225,-1.72007 7.25883,-24.188766 7.64479,-26.183398 0.45461,-2.349411 5.2805,-17.398298 20.06757,-25.227798 18.64823,-9.873914 31.82425,2.260646 33.82818,4.777994 1.91932,2.411052 12.76064,12.224044 6.88031,35.930501 1.72008,-6.498069 -5.50107,-24.81374 -20.25868,-28.667953 -16.65319,-4.349277 -23.41696,11.861014 -25.13704,14.34557 -1.72008,2.484554 -6.73557,20.685314 -9.26451,33.434354 -2.51691,12.68835 -3.24903,33.44595 -22.361,48.5444 -9.55598,7.54922 -24.490916,8.2509 -33.928688,6.86711 -9.942718,-1.45783 -18.76469,-5.83889 -24.93618,-15.08526 C 46.112247,147.63754 46.406697,131.212 51.132956,119.79925 57.912328,103.42873 77.698591,95.144814 79.22755,95.718174 Z"
       id="path54" /><path
       style="fill:#6cc8cb;fill-opacity:1;stroke:#6cc8cb;stroke-width:0.1;stroke-dasharray:none;stroke-opacity:1;filter:url(#filter56)"
       d="m 124.95153,93.744207 c 0,0 -5.30216,3.789603 -15.33595,2.547325 -8.46644,-1.048226 -20.332054,-3.395772 -29.410241,-0.911213 -7.670092,2.099185 -16.755923,10.581411 -19.61196,15.531871 -2.866794,4.96911 -4.777991,8.60039 -4.204631,19.20753 0.573358,10.60714 10.224903,19.58977 18.538608,21.59652 1.098939,-0.33446 -3.579964,-4.02791 -5.626085,-10.78631 -1.970922,-6.51002 -3.331602,-17.21309 9.1618,-26.57759 12.767458,-9.56992 35.740849,2.11971 41.636109,-4.01831 0.44212,-0.78089 0.98451,-2.18066 2.75777,-8.87213 1.00864,-3.806141 2.09458,-7.717693 2.09458,-7.717693 z"
       id="path55" /><path
       style="display:inline;fill:#6cc8cb;fill-opacity:1;stroke:#6cc8cb;stroke-width:0.1;stroke-dasharray:none;stroke-opacity:1;filter:url(#filter54)"
       d="m 138.26234,100.66891 c 0,0 1.55015,-4.090697 12.1573,-4.759617 10.60714,-0.668919 19.68533,2.102316 26.18339,-7.740348 6.49808,-9.842664 -4.93052,-17.296331 -9.07338,-18.533808 5.46762,0.441201 14.33288,4.814012 17.96045,12.035739 2.71452,5.404045 5.68798,11.790694 2.58011,19.207534 -3.38671,8.08226 -9.99397,11.03555 -14.52509,12.23166 -5.99801,1.58332 -15.86294,-0.95561 -19.30309,-1.52896 -3.07032,-0.51171 -16.77569,-2.61008 -20.15253,7.8581 -0.4778,1.48118 0.80191,-5.40746 1.96457,-10.47033 1.16266,-5.06287 2.20827,-8.29997 2.20827,-8.29997 z"
       id="path56" /></g></svg>
